<?xml version="1.0" encoding="utf-8"?>
<!-- Generator: Adobe Illustrator 22.1.0, SVG Export Plug-In . SVG Version: 6.00 Build 0)  -->
<svg version="1.1" id="Layer_1" xmlns="http://www.w3.org/2000/svg" xmlns:xlink="http://www.w3.org/1999/xlink" x="0px" y="0px"
	 viewBox="0 0 1108 730" style="enable-background:new 0 0 1108 730;" xml:space="preserve">
<style type="text/css">
	.st0{fill:none;stroke:#B7D8BB;}
	.st1{fill:#F27C83;}
	.st2{fill:#DFF1FF;}
	.st3{fill:#FFFFFF;stroke:#8492A5;}
	.st4{fill:#10C8D2;}
</style>
<path class="st0" d="M559.5-54C848.6-54,1083,180.4,1083,469.5S848.6,993,559.5,993S36,758.6,36,469.5S270.4-54,559.5-54z M560,104
	c202.1,0,366,163.9,366,366S762.1,836,560,836S194,672.1,194,470S357.9,104,560,104z"/>
<rect id="Rectangle-4-Copy-16" x="914.5" y="498.5" transform="matrix(0.454 -0.891 0.891 0.454 51.613 1101.6692)" class="st1" width="20.4" height="20.4"/>
<rect id="Rectangle-4-Copy-22" x="441.8" y="107.6" transform="matrix(0.9925 -0.1219 0.1219 0.9925 -11.0327 56.029)" class="st2" width="21.2" height="21.2"/>
<path class="st3" d="M113.7,148.9l25.9-13.2l13.2,25.9l-25.9,13.2L113.7,148.9z M1057.6,392.2l21.6-19.5l19.5,21.6l-21.6,19.5
	L1057.6,392.2z M1081.7,622.9l18-7.3l7.3,18l-18,7.3L1081.7,622.9z M747.7,704.9l18-7.3l7.3,18l-18,7.3L747.7,704.9z M739.8,164
	l3.4-21.2l21.2,3.4l-3.4,21.2L739.8,164z M846.7,113.9l25.9-13.2l13.2,25.9l-25.9,13.2L846.7,113.9z M149.7,483.4l19.2-9.8l9.8,19.2
	l-19.2,9.8L149.7,483.4z"/>
<path class="st4" d="M984,176.7l18.9-7.6l7.6,18.9l-18.9,7.6L984,176.7z M0,633.2L9.2,615l18.2,9.3l-9.3,18.2L0,633.2z"/>
</svg>
