<?xml version="1.0" encoding="utf-8"?>
<!-- Generator: Adobe Illustrator 22.1.0, SVG Export Plug-In . SVG Version: 6.00 Build 0)  -->
<svg version="1.1" id="Layer_1" xmlns="http://www.w3.org/2000/svg" xmlns:xlink="http://www.w3.org/1999/xlink" x="0px" y="0px"
	 viewBox="0 0 1900 805" style="enable-background:new 0 0 1900 805;" xml:space="preserve">
<style type="text/css">
	.st0{fill:url(#SVGID_1_);}
	.st1{fill:none;stroke:#ACCFCF;}
	.st2{fill:#DFF1FF;}
	.st3{fill:#FFFFFF;stroke:#8492A5;}
	.st4{fill:#10C8D2;}
	.st5{fill:#F27C83;}
</style>
<linearGradient id="SVGID_1_" gradientUnits="userSpaceOnUse" x1="950" y1="1" x2="950" y2="806" gradientTransform="matrix(1 0 0 -1 0 806)">
	<stop  offset="0" style="stop-color:#FAFDFD"/>
	<stop  offset="1" style="stop-color:#F3FAFA"/>
</linearGradient>
<polygon class="st0" points="1784,359.4 1666,0 1520,347.4 862,675.6 352,515.1 0,805 1900,805 1900,335.4 "/>
<polyline id="Path-3" class="st1" points="0,662 212,346 866,562 1474,228 1584,62 1794,228 1900,142 "/>
<path class="st2" d="M1445,154.2l9.3-18.2l18.2,9.3l-9.3,18.2L1445,154.2z M17,540.2l9.3-18.2l18.2,9.3l-9.3,18.2L17,540.2z"/>
<path class="st3" d="M1834.7,191.6l13.2-25.9l25.9,13.2l-13.2,25.9L1834.7,191.6z M1626.7,117.6l13.2-25.9l25.9,13.2l-13.2,25.9
	L1626.7,117.6z M1386.7,307.6l13.2-25.9l25.9,13.2l-13.2,25.9L1386.7,307.6z M308.7,388.6l13.2-25.9l25.9,13.2l-13.2,25.9
	L308.7,388.6z M123.6,459l8.8-17.3l17.3,8.8l-8.8,17.3L123.6,459z"/>
<path class="st4" d="M1779,67.2l9.3-18.2l18.2,9.3l-9.3,18.2L1779,67.2z M415,473.2l9.3-18.2l18.2,9.3l-9.3,18.2L415,473.2z"/>
<rect id="Rectangle-4-Copy-8" x="953.5" y="498.5" transform="matrix(0.454 -0.891 0.891 0.454 72.9069 1136.4187)" class="st5" width="20.4" height="20.4"/>
</svg>
