<?xml version="1.0" encoding="utf-8"?>
<!-- Generator: Adobe Illustrator 22.1.0, SVG Export Plug-In . SVG Version: 6.00 Build 0)  -->
<svg version="1.1" id="Layer_1" xmlns="http://www.w3.org/2000/svg" xmlns:xlink="http://www.w3.org/1999/xlink" x="0px" y="0px"
	 viewBox="0 0 1003 1049" style="enable-background:new 0 0 1003 1049;" xml:space="preserve">
<style type="text/css">
	.st0{fill:none;stroke:#CDCECE;}
	.st1{fill:#F3FAFA;}
	.st2{fill:#10C8D2;}
	.st3{fill:#F27C83;}
	.st4{fill:#DFF1FF;}
	.st5{fill:#FFFFFF;stroke:#8492A5;}
</style>
<circle id="Oval" class="st0" cx="724.5" cy="524.5" r="523.5"/>
<circle id="Oval_1_" class="st0" cx="725" cy="525" r="366"/>
<circle id="Oval_2_" class="st1" cx="725" cy="525" r="277"/>
<rect id="Rectangle-4-Copy-9" x="440.5" y="200.5" transform="matrix(0.454 -0.891 0.891 0.454 58.3315 516.6212)" class="st2" width="20.4" height="20.4"/>
<rect id="Rectangle-4-Copy-16" x="899.5" y="782.5" transform="matrix(0.454 -0.891 0.891 0.454 -209.6248 1243.3677)" class="st3" width="20.4" height="20.4"/>
<rect id="Rectangle-4-Copy-20" x="3.1" y="846.1" transform="matrix(0.9272 -0.3746 0.3746 0.9272 -319.7974 67.3329)" class="st4" width="20.4" height="20.4"/>
<path class="st5" d="M597.7,869.9l25.9-13.2l13.2,25.9l-25.9,13.2L597.7,869.9z M883.7,197.9l25.9-13.2l13.2,25.9l-25.9,13.2
	L883.7,197.9z M617.7,216.2l21.6-19.5l19.5,21.6l-21.6,19.5L617.7,216.2z M768.7,246.9l18-7.3l7.3,18l-18,7.3L768.7,246.9z
	 M174.7,8.9l18-7.3l7.3,18l-18,7.3L174.7,8.9z M344.7,516.4l19.2-9.8l9.8,19.2l-19.2,9.8L344.7,516.4z M186.7,976.4l19.2-9.8
	l9.8,19.2l-19.2,9.8L186.7,976.4z"/>
</svg>
