<?xml version="1.0" encoding="utf-8"?>
<!-- Generator: Adobe Illustrator 22.1.0, SVG Export Plug-In . SVG Version: 6.00 Build 0)  -->
<svg version="1.1" id="Layer_1" xmlns="http://www.w3.org/2000/svg" xmlns:xlink="http://www.w3.org/1999/xlink" x="0px" y="0px"
	 viewBox="0 0 18 19" style="enable-background:new 0 0 18 19;" xml:space="preserve">
<style type="text/css">
	.st0{fill:#FFFFFF;}
</style>
<path id="Envelope" class="st0" d="M18,8.8C18,8.9,18,8.9,18,8.8v8.6c0,0.3-0.1,0.6-0.3,0.8s-0.5,0.3-0.8,0.3H1.1
	c-0.3,0-0.6-0.1-0.8-0.3S0,17.7,0,17.4V9c0-0.2,0.1-0.4,0.2-0.6S0.4,8.1,0.5,8l7.3-7C8.2,0.7,8.6,0.5,9,0.5S9.9,0.7,10.2,1l7.3,7.1
	l0.1,0.1l0.1,0.1l0,0c0.1,0.1,0.1,0.2,0.1,0.2S18,8.7,18,8.8z M4.7,13.3l-3.6-3.2v6.5L4.7,13.3z M5.9,13.8l-4,3.6h14.2l-6.8-6.1
	c0,0-0.1-0.1-0.2-0.1s-0.2,0-0.2,0H8.7c0,0-0.1,0.1-0.2,0.2L6,13.6l0,0C6,13.7,6,13.7,5.9,13.8C5.9,13.7,5.9,13.7,5.9,13.8z
	 M13.3,13.4l3.6,3.2v-6.4L13.3,13.4z M1.8,8.3L1.8,8.3L1.3,8.8l4.3,3.8l2.2-2c0.3-0.4,0.7-0.5,1.2-0.5s0.8,0.1,1.1,0.4l2.4,2.1
	l4.3-3.8l-1-1l0,0l-6.4-6c-0.1,0-0.1-0.1-0.2-0.1s-0.1,0-0.2,0s-0.1,0-0.2,0s-0.1,0-0.2,0.1L1.8,8.3z"/>
</svg>
