<?xml version="1.0" encoding="utf-8"?>
<!-- Generator: Adobe Illustrator 22.1.0, SVG Export Plug-In . SVG Version: 6.00 Build 0)  -->
<svg version="1.1" id="Layer_1" xmlns="http://www.w3.org/2000/svg" xmlns:xlink="http://www.w3.org/1999/xlink" x="0px" y="0px"
	 viewBox="0 0 21 16" style="enable-background:new 0 0 21 16;" xml:space="preserve">
<style type="text/css">
	.st0{fill:#38BA72;}
</style>
<path id="home" class="st0" d="M17.6,9.2v5.9c0,0.2-0.1,0.4-0.2,0.6c-0.2,0.2-0.3,0.2-0.6,0.2h-4.7v-4.7H8.9v4.7H4.2
	c-0.2,0-0.4-0.1-0.6-0.2c-0.2-0.2-0.2-0.3-0.2-0.6V9.2l0,0l0,0l7.1-5.8L17.6,9.2L17.6,9.2z M20.3,8.4l-0.8,0.9
	c-0.1,0.1-0.2,0.1-0.3,0.1l0,0c-0.1,0-0.2,0-0.3-0.1l-8.5-7.1L2,9.3C1.9,9.4,1.8,9.4,1.7,9.4S1.5,9.3,1.4,9.3L0.7,8.4
	C0.6,8.3,0.6,8.2,0.6,8.1c0-0.1,0.1-0.2,0.1-0.3l8.8-7.4c0.3-0.2,0.6-0.3,0.9-0.3s0.7,0.1,0.9,0.3l3,2.5V0.6c0-0.1,0-0.2,0.1-0.3
	s0.2-0.1,0.3-0.1h2.4c0.1,0,0.2,0,0.3,0.1c0.1,0.1,0.1,0.2,0.1,0.3v5l2.8,2.2c0.1,0.1,0.1,0.2,0.1,0.3C20.4,8.2,20.4,8.3,20.3,8.4z"
	/>
</svg>
