<?xml version="1.0" encoding="utf-8"?>
<!-- Generator: Adobe Illustrator 22.1.0, SVG Export Plug-In . SVG Version: 6.00 Build 0)  -->
<svg version="1.1" id="Layer_1" xmlns="http://www.w3.org/2000/svg" xmlns:xlink="http://www.w3.org/1999/xlink" x="0px" y="0px"
	 viewBox="0 0 827 514" style="enable-background:new 0 0 827 514;" xml:space="preserve">
<style type="text/css">
	.st0{fill:#FEFEFE;stroke:#8492A5;stroke-width:2;}
	.st1{fill:none;stroke:#8492A5;stroke-opacity:0.2;}
	.st2{fill:#FFFFFF;stroke:#8492A5;}
</style>
<g id="Laptop" transform="translate(850.000000, 180.000000)">
	<path class="st0" d="M-140.8-166h-591.4c-16.1,0-29.8,14.4-29.8,32.3V292h651v-425.7C-111-151.6-124.7-166-140.8-166z M-435-146
		c2.8,0,5,2.2,5,5s-2.2,5-5,5s-5-2.2-5-5S-437.8-146-435-146z M-85.2,332.7h-702.7c-36.5,0-61.1-13.8-61.1-19.7v-17.8
		c0-1.8,1.6-3.2,3.6-3.2h817.8c2,0,3.6,1.4,3.6,3.2v18.5C-24.1,318.4-43.1,332.7-85.2,332.7z M-848.4,311h822.1 M-347,294v4.1
		c0,3-5.2,3.9-9.1,3.9h-160.6c-4.1,0-9.3-0.9-9.3-3.9V294"/>
	<rect x="-735.5" y="-114.5" class="st1" width="595.9" height="380.7"/>
	
		<rect id="Rectangle-4-Copy-21" x="-490.6" y="-175.6" transform="matrix(0.891 -0.454 0.454 0.891 22.5507 -235.8286)" class="st2" width="21.5" height="21.5"/>
</g>
</svg>
