<?xml version="1.0" encoding="utf-8"?>
<!-- Generator: Adobe Illustrator 22.1.0, SVG Export Plug-In . SVG Version: 6.00 Build 0)  -->
<svg version="1.1" id="Layer_1" xmlns="http://www.w3.org/2000/svg" xmlns:xlink="http://www.w3.org/1999/xlink" x="0px" y="0px"
	 viewBox="0 0 14 19" style="enable-background:new 0 0 14 19;" xml:space="preserve">
<style type="text/css">
	.st0{fill:#38BA72;}
</style>
<path id="location" class="st0" d="M7,9c0.4,0,0.8-0.1,1.1-0.3C8.5,8.5,8.8,8.2,9,7.9c0.2-0.4,0.3-0.7,0.3-1.1S9.2,6,9,5.7
	C8.8,5.3,8.5,5,8.1,4.8C7.8,4.6,7.4,4.5,7,4.5S6.2,4.6,5.9,4.8C5.5,5,5.2,5.3,5,5.6C4.8,6,4.7,6.3,4.7,6.8c0,0.6,0.2,1.2,0.7,1.6
	C5.8,8.8,6.4,9,7,9z M7,0.3c1.2,0,2.3,0.3,3.2,0.9c1,0.6,1.7,1.3,2.3,2.3s0.9,2.1,0.9,3.2c0,0.9-0.2,1.9-0.7,3.1
	c-0.4,1-0.9,2-1.6,3.2c-0.6,0.9-1.2,1.9-1.9,2.8c-0.5,0.7-1,1.4-1.6,2L7,18.7l-0.7-0.8c-0.6-0.7-1.1-1.3-1.6-2
	c-0.7-1-1.4-1.9-1.9-2.8C2.1,12,1.6,10.9,1.2,9.9C0.8,8.7,0.6,7.6,0.6,6.8c0-1.2,0.3-2.3,0.9-3.2C2,2.5,2.8,1.8,3.8,1.2
	C4.7,0.6,5.8,0.3,7,0.3z"/>
</svg>
