<?xml version="1.0" encoding="utf-8"?>
<!-- Generator: Adobe Illustrator 22.1.0, SVG Export Plug-In . SVG Version: 6.00 Build 0)  -->
<svg version="1.1" id="Layer_1" xmlns="http://www.w3.org/2000/svg" xmlns:xlink="http://www.w3.org/1999/xlink" x="0px" y="0px"
	 viewBox="0 0 20 16" style="enable-background:new 0 0 20 16;" xml:space="preserve">
<style type="text/css">
	.st0{fill:#38BA72;}
</style>
<path id="mail" class="st0" d="M10,7.1l7.3-4.6H2.7L10,7.1z M17.3,13.5V4.3L10,8.9L2.7,4.3v9.2C2.7,13.5,17.3,13.5,17.3,13.5z
	 M17.3,0.7c0.5,0,0.9,0.2,1.3,0.5C19,1.6,19.1,2,19.1,2.5v11c0,0.5-0.2,0.9-0.5,1.3c-0.4,0.4-0.8,0.5-1.3,0.5H2.7
	c-0.5,0-0.9-0.2-1.3-0.5S0.9,14,0.9,13.5v-11c0-0.5,0.2-0.9,0.5-1.3s0.8-0.5,1.3-0.5H17.3z"/>
</svg>
