<?xml version="1.0" encoding="utf-8"?>
<!-- Generator: Adobe Illustrator 22.1.0, SVG Export Plug-In . SVG Version: 6.00 Build 0)  -->
<svg version="1.1" id="Layer_1" xmlns="http://www.w3.org/2000/svg" xmlns:xlink="http://www.w3.org/1999/xlink" x="0px" y="0px"
	 viewBox="0 0 17 17" style="enable-background:new 0 0 17 17;" xml:space="preserve">
<style type="text/css">
	.st0{fill:#38BA72;}
</style>
<path id="phone" class="st0" d="M3.6,7.4c0.7,1.3,1.5,2.4,2.6,3.5s2.2,1.9,3.5,2.6l2-2c0.1-0.1,0.3-0.2,0.4-0.3c0.2,0,0.3,0,0.5,0
	c1,0.3,2.1,0.5,3.3,0.5c0.2,0,0.5,0.1,0.6,0.3c0.1,0.2,0.3,0.4,0.3,0.6v3.2c0,0.2-0.1,0.5-0.3,0.6c-0.2,0.2-0.4,0.3-0.6,0.3
	c-2.1,0-4.1-0.4-6.1-1.2c-1.8-0.8-3.5-1.9-4.9-3.3s-2.6-3.1-3.4-5s-1.2-3.9-1.2-6c0-0.2,0.1-0.5,0.3-0.6C0.8,0.4,1,0.3,1.2,0.3h3.2
	c0.2,0,0.5,0.1,0.6,0.3c0.3,0.1,0.3,0.3,0.3,0.6c0,1.2,0.2,2.3,0.5,3.3c0,0.2,0.1,0.3,0,0.5c0,0.2-0.1,0.3-0.2,0.4L3.6,7.4z"/>
</svg>
