<?xml version="1.0" standalone="no"?>
<!DOCTYPE svg PUBLIC "-//W3C//DTD SVG 20010904//EN"
 "http://www.w3.org/TR/2001/REC-SVG-20010904/DTD/svg10.dtd">
<svg version="1.0" xmlns="http://www.w3.org/2000/svg"
 width="700.000000pt" height="700.000000pt" viewBox="0 0 700.000000 700.000000"
 preserveAspectRatio="xMidYMid meet">
<metadata>
Created by potrace 1.11, written by Peter Selinger 2001-2013
</metadata>
<g transform="translate(0.000000,700.000000) scale(0.100000,-0.100000)"
fill="#000000" stroke="none">
<path d="M70 3500 l0 -3501 1888 4 c1975 4 1991 4 2317 48 530 71 1024 240
1389 476 201 130 445 349 586 528 216 273 396 630 503 1000 133 457 184 911
174 1525 -9 465 -42 776 -123 1135 -105 462 -287 881 -521 1195 -415 557
-1013 898 -1805 1030 -332 55 -253 53 -2410 57 l-1998 4 0 -3501z m3875 2046
c383 -51 702 -136 1053 -278 l102 -42 -1 -146 c-1 -80 -6 -383 -12 -673 l-12
-528 -59 46 c-260 201 -684 367 -1104 430 -142 22 -398 16 -480 -10 -69 -22
-135 -84 -153 -143 -16 -56 -13 -58 105 -66 327 -25 730 -110 970 -206 291
-115 565 -310 681 -485 93 -140 161 -308 185 -460 18 -107 15 -316 -5 -420
-22 -115 -65 -247 -110 -337 -314 -625 -1146 -895 -2365 -767 -243 25 -538 79
-790 145 -143 38 -410 122 -422 133 -7 6 81 1135 98 1259 l5 42 62 -35 c421
-243 918 -385 1357 -387 252 -2 384 63 406 198 l6 41 -83 7 c-324 27 -694 99
-939 183 -536 184 -816 470 -896 918 -21 121 -24 382 -5 500 44 274 142 470
326 650 103 102 206 173 349 241 234 111 481 171 861 208 22 2 200 3 395 1
257 -2 388 -7 475 -19z"/>
</g>
</svg>
