<?xml version="1.0" encoding="utf-8"?>
<!-- Generator: Adobe Illustrator 22.1.0, SVG Export Plug-In . SVG Version: 6.00 Build 0)  -->
<svg version="1.1" id="Layer_1" xmlns="http://www.w3.org/2000/svg" xmlns:xlink="http://www.w3.org/1999/xlink" x="0px" y="0px"
	 viewBox="0 0 166 52" style="enable-background:new 0 0 166 52;" xml:space="preserve">
<style type="text/css">
	.st0{fill:#38BA72;}
	.st1{fill:#050D31;}
</style>
<path id="Shape" class="st0" d="M26.8,0H0v52h25.6C38.7,52,51,47,51,26.4C51,5,39,0,26.8,0z M24.1,41.4c-4.6,0-9.1-0.8-13.3-2.3
	l0.8-9.7c3.2,2,6.9,3.1,10.7,3.2c2.3,0,2.9-0.9,2.9-1.8c-11.6-1-14.4-4.9-14.4-10.3c0-6.1,4.4-9.9,13.8-9.9
	c4.4-0.1,8.8,0.8,12.8,2.6l-0.2,10c-2.4-2.1-7-3.7-10.5-3.7c-2.3,0-2.9,0.8-2.9,1.7c5.3,0.4,8.6,1.5,10.7,3c2.6,1.5,4,4.4,3.9,7.3
	C38.2,37.2,33.8,41.4,24.1,41.4z"/>
<path class="st1" d="M66,11h14.9c3.6,0,5.3,0.4,6.5,1.5c1,0.9,1.3,1.9,1.5,3.9C89,17.1,89,18.2,89,19c0,1.3-0.1,2.7-0.3,4
	c-0.2,1.8-1.7,3.3-3.6,3.7C84,27,82.7,27,81.5,27H66V11z M80,23.2c0.7,0.1,1.5,0,2.1-0.2c1.3-0.4,1.6-1.2,1.6-3.9c0-3.4-0.6-4-3.6-4
	h-8.9v8.2L80,23.2z M95.5,20.1v0.5c0,1.3,0.1,1.9,0.6,2.1c0.9,0.4,2,0.5,3,0.4c1.6,0,2.5-0.2,2.9-0.6c0.4-0.5,0.3-0.5,0.4-2.4V11
	h4.7v8.2c0,3.9-0.1,4.4-0.8,5.6s-1.9,1.8-3.8,2.1c-1.3,0.1-2.6,0.2-3.9,0.1c-3.4,0-4.3-0.1-5.4-0.7c-1.5-0.7-2.1-2-2.1-4.2v-1v-1
	H95.5z M132.8,11v3.6h-14.5v2.8H132v3.2h-13.6v2.8H133V27h-20V11H132.8z M137,11h8.3l6.2,10.6l6.2-10.6h8.2v16h-5.1l0.3-12.4
	L153.6,27h-4.2l-7.5-12.4l0.2,12.4h-5L137,11z M68.4,38.4c0,0.5,0.1,0.7,0.4,0.8c0.5,0.1,1.1,0.1,1.6,0.1c2.8,0,3.2-0.1,3.2-0.7
	c0-0.3-0.1-0.5-0.4-0.6c-0.3-0.1-0.3-0.1-1.5-0.1h-2.2c-0.9,0.1-1.8,0-2.6-0.3c-0.6-0.3-0.8-0.9-0.8-2c0-1.4,0.4-2,1.6-2.3
	c1.1-0.2,2.2-0.3,3.3-0.2c2.8,0,3.5,0.1,4,0.4c0.6,0.4,0.7,0.9,0.7,2h-2.4c0-0.7-0.2-0.8-1.8-0.8c-0.8,0-1.8,0-2.2,0.1
	c-0.6,0-0.9,0.2-0.9,0.7c0,0.3,0.2,0.6,0.5,0.6c0.3,0.1,0.7,0.1,1,0.1h2.3c0.2,0,1.3,0,1.7,0.1c1.5,0.1,2.1,0.7,2.1,2.3
	c0,1.4-0.4,2.1-1.6,2.3C73.2,41,72,41,70.9,41c-2.8,0-3.4-0.1-4.1-0.4c-0.5-0.2-0.7-0.8-0.7-1.8c0-0.1,0-0.3,0-0.4L68.4,38.4z
	 M87.9,35.3c0.1,0.6,0.1,1.3,0.1,1.9c0,1.9-0.2,2.6-0.8,3.2c-0.6,0.5-1.4,0.7-2.1,0.6c-0.4,0-1.4,0-2.1,0c-1,0-2,0-3.1-0.1
	c-0.7,0-1.2-0.4-1.5-1C78.1,39.2,78,38.7,78,37c0-0.7,0-1.5,0.2-2.2c0.2-0.8,0.7-1.4,1.4-1.5c1.1-0.2,2.1-0.3,3.2-0.2
	c1.1,0,2.2,0,3.3,0.2C87.1,33.3,87.9,34.2,87.9,35.3z M80.7,35.2c-0.3,0.2-0.4,0.6-0.4,1.8c0,1.2,0.1,1.6,0.4,1.8
	c0.3,0.2,0.7,0.3,2.3,0.3c1.9,0,2.3-0.1,2.6-0.4c0.3-0.4,0.3-0.7,0.3-1.7c0-2,0-2-2.8-2C81.4,35,81,35.1,80.7,35.2L80.7,35.2z
	 M91,33h2.4v6H99v2h-8L91,33z M103.4,33v3.4c0,1.7,0,1.7,0.2,2.1s0.7,0.6,2.1,0.6c1.8,0,2.3,0,2.5-0.3c0.3-0.3,0.3-0.5,0.4-1.1
	c0-0.2,0-0.2,0-1.1V33h2.4v4.1c0.1,0.8,0,1.6-0.2,2.3c-0.4,0.8-1.1,1.3-2,1.4c-0.9,0.1-1.8,0.1-2.8,0.1c-1.1,0.1-2.1,0-3.2-0.2
	c-0.8-0.1-1.4-0.7-1.6-1.4c-0.2-0.7-0.2-1.4-0.2-2.1V33H103.4z M115.7,35H112v-2h10v2h-3.7v6h-2.5L115.7,35z M125,33h2v8h-2L125,33z
	 M138.9,35.3c0.1,0.6,0.1,1.3,0.1,1.9c0,1.9-0.2,2.6-0.8,3.2c-0.6,0.5-1.4,0.7-2.1,0.6c-0.4,0-1.4,0-2.1,0c-1,0-2,0-3.1-0.1
	c-0.7,0-1.2-0.4-1.6-1c-0.3-0.6-0.3-1.1-0.3-2.9c-0.1-0.7,0-1.5,0.2-2.2c0.2-0.8,0.7-1.4,1.5-1.5c1.1-0.2,2.1-0.3,3.2-0.2
	c1.1,0,2.2,0,3.3,0.2C138.1,33.3,138.9,34.2,138.9,35.3z M131.7,35.2c-0.3,0.2-0.4,0.6-0.4,1.8s0.1,1.6,0.4,1.8
	c0.3,0.2,0.7,0.3,2.3,0.3c1.9,0,2.3-0.1,2.6-0.4c0.3-0.4,0.3-0.7,0.3-1.7c0-2,0-2-2.8-2C132.4,35,132,35.1,131.7,35.2L131.7,35.2z
	 M142,33h3.5l4.4,6.1l-0.1-6.1h2.1v8h-3.6l-4.3-6l0.1,6H142V33z M158.4,38.4c0,0.5,0.1,0.7,0.4,0.8c0.5,0.1,1.1,0.1,1.6,0.1
	c2.8,0,3.2-0.1,3.2-0.7c0-0.3-0.1-0.5-0.4-0.6c-0.3-0.1-0.3-0.1-1.5-0.1h-2.2c-0.9,0.1-1.8,0-2.6-0.3c-0.6-0.3-0.8-0.9-0.8-2
	c0-1.4,0.4-2,1.6-2.3c1.1-0.2,2.2-0.3,3.4-0.2c2.8,0,3.5,0.1,4,0.4c0.6,0.4,0.7,0.9,0.7,2h-2.4c0-0.7-0.2-0.8-1.8-0.8
	c-0.8,0-1.8,0-2.2,0.1c-0.6,0-0.9,0.2-0.9,0.7c0,0.3,0.2,0.6,0.5,0.6c0.3,0.1,0.7,0.1,1,0.1h2.3c0.2,0,1.3,0,1.7,0.1
	c1.5,0.1,2.1,0.7,2.1,2.3c0,1.4-0.4,2.1-1.6,2.3c-1.2,0.2-2.4,0.2-3.5,0.2c-2.8,0-3.4-0.1-4.1-0.4c-0.5-0.2-0.7-0.8-0.7-1.8
	c0-0.1,0-0.2,0-0.4L158.4,38.4z"/>
</svg>
