<?xml version="1.0" encoding="utf-8"?>
<!-- Generator: Adobe Illustrator 22.1.0, SVG Export Plug-In . SVG Version: 6.00 Build 0)  -->
<svg version="1.1" id="Layer_1" xmlns="http://www.w3.org/2000/svg" xmlns:xlink="http://www.w3.org/1999/xlink" x="0px" y="0px"
	 viewBox="0 0 80 80" style="enable-background:new 0 0 80 80;" xml:space="preserve">
<style type="text/css">
	.st0{fill:none;}
	.st1{fill:#546C8B;}
	.st2{fill:#38BA72;}
</style>
<rect x="0" y="0" class="st0" width="80" height="80"/>
<g id="company" transform="translate(95.000000, 86.000000)">
	<path id="Combined-Shape" class="st1" d="M-29.2-69.4c8.7,2.4,14.5,10.7,13.6,19.8c-0.5,5-3,9.7-7,12.7l-1.6-2.1
		c3.4-2.6,5.6-6.6,6-10.9c0.8-8.1-4.6-15.4-12.4-17.1c-0.5-0.1-0.9-0.5-1-1.1c-1-5.6-4.6-10.5-9.6-13.1c-9-4.8-20.1-1.3-24.9,7.8
		c-0.2,0.5-0.7,0.7-1.2,0.7l-0.3,0c-0.2,0-0.4,0-0.6,0c-7.3,0-13.4,5.4-14.4,12.7c-0.1,0.5-0.4,0.9-0.9,1.1
		c-5.4,1.7-8.9,6.9-8.4,12.6c0.4,3.8,2.5,7.1,5.7,9l-1.3,2.3c-4-2.3-6.6-6.4-7-11.1c-0.6-6.6,3.3-12.8,9.4-15.1
		c1.5-8.2,8.6-14.2,16.8-14.2h0.2c2.9-5.1,7.9-8.8,13.6-10.1C-43-88.1-31.8-80.9-29.2-69.4z M-53.7-25c5.1,0,9.2,4.3,9.2,9.5V-6h-21
		v-9.5c0-5.2,4.1-9.5,9.2-9.5H-53.7z M-47.1-8.7v-6.8c0-3.7-2.9-6.8-6.6-6.8h-2.6c-3.6,0-6.6,3-6.6,6.8v6.8H-47.1z M-55-40
		c3.6,0,6.5,2.9,6.5,6.5c0,3.6-2.9,6.5-6.5,6.5c-3.6,0-6.5-2.9-6.5-6.5S-58.6-40-55-40z M-55-29.6c2.2,0,3.9-1.7,3.9-3.9
		s-1.7-3.9-3.9-3.9s-3.9,1.7-3.9,3.9S-57.2-29.6-55-29.6z M-77.7-25c5.1,0,9.2,4.3,9.2,9.5V-6h-21v-9.5c0-5.2,4.1-9.5,9.2-9.5H-77.7
		z M-71.1-8.7v-6.8c0-3.7-2.9-6.8-6.6-6.8h-2.6c-3.6,0-6.6,3-6.6,6.8v6.8H-71.1z M-79-40c3.6,0,6.5,2.9,6.5,6.5
		c0,3.6-2.9,6.5-6.5,6.5c-3.6,0-6.5-2.9-6.5-6.5S-82.6-40-79-40z M-79-29.6c2.2,0,3.9-1.7,3.9-3.9s-1.7-3.9-3.9-3.9
		s-3.9,1.7-3.9,3.9S-81.2-29.6-79-29.6z M-29.7-25c5.1,0,9.2,4.3,9.2,9.5V-6h-21v-9.5c0-5.2,4.1-9.5,9.2-9.5H-29.7z M-23.1-8.7v-6.8
		c0-3.7-2.9-6.8-6.6-6.8h-2.6c-3.6,0-6.6,3-6.6,6.8v6.8H-23.1z M-31-40c3.6,0,6.5,2.9,6.5,6.5c0,3.6-2.9,6.5-6.5,6.5
		c-3.6,0-6.5-2.9-6.5-6.5S-34.6-40-31-40z M-31-29.6c2.2,0,3.9-1.7,3.9-3.9s-1.7-3.9-3.9-3.9s-3.9,1.7-3.9,3.9S-33.2-29.6-31-29.6z"
		/>
	<path class="st2" d="M-44.3-64.4c2.3,5.4-0.5,11.5-6.1,13.7v0.8h2.7v2.6h-2.7v2.6c0,0.7-0.6,1.3-1.4,1.3h-1.4v1.3h-2.7v-1.3h-1.4
		c-0.8,0-1.4-0.6-1.4-1.3v-2.6h-2.7v-2.6h2.7v-0.8c-4.2-1.6-6.9-5.5-6.9-9.8c0-5.8,4.9-10.5,11-10.5C-50-71-46-68.4-44.3-64.4z
		 M-52.1-52.9c2.7-0.8,4.7-2.8,5.5-5.3c1.3-4.2-1.2-8.6-5.5-9.8c-4.4-1.2-9,1.1-10.3,5.3c-1.3,4.2,1.2,8.6,5.5,9.8
		c0.6,0.2,1,0.7,1,1.3v1.7h2.7v-1.7C-53.1-52.2-52.7-52.7-52.1-52.9z M-61.5-60c0-3.9,3.1-7,7-7v2.8c-2.3,0-4.2,1.9-4.2,4.2H-61.5z
		 M-55.5-75h3v3h-3V-75z M-47.4-70.3l2.1-2.1l2.1,2.1l-2.1,2.1L-47.4-70.3z M-42.5-62h3v3h-3V-62z M-66-70.3l2.1-2.1l2.1,2.1
		l-2.1,2.1L-66-70.3z M-68.5-62h3v3h-3V-62z"/>
</g>
</svg>
