<?xml version="1.0" encoding="UTF-8"?>
<svg width="79px" height="70px" viewBox="0 0 79 70" version="1.1" xmlns="http://www.w3.org/2000/svg" xmlns:xlink="http://www.w3.org/1999/xlink">
    <!-- Generator: sketchtool 51 (57462) - http://www.bohemiancoding.com/sketch -->
    <title>591DA1E7-4D76-470D-92CA-FCA5464567D8</title>
    <desc>Created with sketchtool.</desc>
    <defs></defs>
    <g id="Page-1" stroke="none" stroke-width="1" fill="none" fill-rule="evenodd">
        <g id="Djem_solution_02" transform="translate(-766.000000, -875.000000)">
            <rect fill="#FFFFFF" x="0" y="0" width="1900" height="5046"></rect>
            <g id="About" transform="translate(382.000000, 784.000000)" fill-rule="nonzero">
                <g id="cloud-computing" transform="translate(384.000000, 91.000000)">
                    <path d="M51.6904729,39.0959493 C48.5283004,36.1243258 44.3577121,34.4665582 40.0220863,34.4574468 L39.8897916,34.4574468 C30.3913677,34.4574468 22.6914894,42.1709451 22.6914894,51.6861702 C22.6914894,61.2013954 30.3913677,68.9148936 39.8897916,68.9148936 L40.0220863,68.9148936 C49.5203448,68.8753007 57.1883071,61.1298299 57.1487841,51.6147704 C57.1291052,46.8666005 55.1541117,42.3371029 51.6904729,39.0959493 Z" id="Shape" fill="#FFFFFF"></path>
                    <g id="Group">
                        <path d="M65.1681019,16.3933207 C71.2376341,17.978818 76.0727297,22.5588702 77.9817048,28.5309103 C81.0592557,38.1591139 75.7435904,48.457461 66.1088753,51.532932 L65.2705884,49.0460317 C70.6570416,47.3379291 74.7083784,42.8670235 75.8761331,37.3414174 C77.6668545,28.8690184 72.2455821,20.5500812 63.7674532,18.7607341 C63.2473015,18.6484691 62.8462245,18.2337122 62.7517859,17.7103011 C61.7344761,12.146781 58.2095322,7.36173019 53.1959064,4.73827367 C44.2022245,0.0323336421 33.0937734,3.50335832 28.3846507,12.4909619 C28.1415738,12.942484 27.6608399,13.2146118 27.1482432,13.1908129 L26.8670624,13.1737434 C26.669973,13.160613 26.4755114,13.1461695 26.2757942,13.1461695 C19.0325946,13.1591358 12.91379,18.5202834 11.9539647,25.6949052 C11.8876112,26.2063348 11.5279231,26.6315961 11.0342141,26.7821034 C5.6517027,28.4278366 2.16305613,33.6217356 2.6776237,39.2231698 C3.31816424,44.7824225 7.70520998,49.1688011 13.267894,49.8115348 L12.9367838,52.4166088 C6.15543035,51.6118786 0.821370062,46.2466277 0.0602765073,39.4647694 C-0.535097713,32.9304193 3.32883992,26.8090208 9.48640541,24.5315506 C10.97558,16.4297575 18.0328586,10.5401108 26.2757942,10.5200869 L26.4715696,10.5200869 C29.4039314,5.43467795 34.3324802,1.808222 40.062526,0.519964355 C51.3815343,-2.02470969 62.6217069,5.08196223 65.1681019,16.3933207 Z M63.065815,39.4069955 L61.3892412,39.4069955 C65.7754657,47.5306179 65.3083638,57.4119103 60.1751705,65.0861443 L57.99142,63.6260424 C62.56258,56.7893646 62.9978191,47.9936291 59.124027,40.7397325 L59.124027,43.3461194 L56.4961684,43.3461194 L56.4961684,38.0939542 C56.4961684,37.3688272 57.0844802,36.7809129 57.8100977,36.7809129 L63.065815,36.7809129 L63.065815,39.4069955 Z M19.7061476,61.7090021 L19.7061476,60.4156564 L22.3340062,60.4156564 L22.3340062,65.6678216 C22.3340062,66.3929486 21.7456944,66.9808629 21.0200769,66.9808629 L15.7643597,66.9808629 L15.7643597,64.3547803 L18.2043264,64.3547803 C13.0405842,56.0488093 13.216815,45.4917931 18.6550042,37.3625902 L20.8387547,38.8253182 C16.2675946,45.6608471 15.8321913,54.455926 19.7061476,61.7090021 Z" id="Combined-Shape" fill="#546C8B"></path>
                        <path d="M49.235395,35.6792713 C46.3189647,33.8313298 42.9380603,32.8473695 39.4847256,32.841789 L39.3454491,32.841789 C38.7646923,32.841789 38.1878773,32.8701836 37.6150042,32.9271367 C27.5046466,33.9220938 20.1156008,42.9192169 21.1112308,53.0227415 C21.5495904,57.4705047 23.5942287,61.6064207 26.8631206,64.6567798 C27.2888337,65.0551237 27.7298212,65.4301611 28.1862474,65.7820562 C31.3809023,68.2543488 35.3049522,69.5993955 39.3454491,69.6069455 L39.4847256,69.6069455 C49.6489543,69.5522901 57.8444241,61.273893 57.7897318,51.1165337 C57.7558981,44.8505365 54.5321726,39.0327788 49.235395,35.6792713 Z M50.8305052,62.058271 C49.5467963,61.3433201 48.198869,60.7499895 46.8046258,60.2856653 C47.8360603,57.823877 48.4353763,55.2027183 48.5758025,52.5374086 L55.1139148,52.5374086 C54.8067838,56.1042853 53.296422,59.4612395 50.8305052,62.058271 Z M27.9996694,40.3930896 C29.2833784,41.1080406 30.6313056,41.7013711 32.0255489,42.1656953 C30.9942786,44.626663 30.3951268,47.247001 30.2543721,49.911326 L23.7162599,49.911326 C24.0233909,46.3444493 25.5337526,42.987495 27.9996694,40.3904635 L27.9996694,40.3930896 Z M45.3435364,65.8201344 C45.1937484,65.8805343 45.0413326,65.9330559 44.8902308,65.9882037 C44.6103638,66.0919339 44.327869,66.189099 44.0427464,66.2770727 C43.8732495,66.3282814 43.7037526,66.3755508 43.5329418,66.4215073 C43.3279688,66.476655 43.1190541,66.5226115 42.9101393,66.569881 C43.9405884,65.3705819 44.8462141,64.0696862 45.6128919,62.6872178 C46.6875218,63.011539 47.7345593,63.4212079 48.7439854,63.9122854 C48.5197963,64.0777286 48.2919938,64.2374272 48.0607422,64.3915454 C47.9792786,64.4440671 47.9017568,64.5018409 47.8202931,64.5543626 C47.7388295,64.6068842 47.6415988,64.6554667 47.5575073,64.7093014 C47.2421642,64.8996924 46.9255073,65.0861443 46.5970249,65.2542136 C46.5615489,65.2725961 46.5247588,65.2870396 46.4892827,65.3041091 C46.4327838,65.332996 46.3749709,65.3566308 46.3184719,65.3842047 C45.9939314,65.5365174 45.6707048,65.6835781 45.3422225,65.8175083 L45.3435364,65.8201344 Z M33.4879522,36.6312262 C33.6377401,36.5708263 33.7901559,36.5183047 33.9412578,36.4631569 C34.2211247,36.3594267 34.5036195,36.2622616 34.7887422,36.1742879 C34.9582391,36.1230792 35.127736,36.0758098 35.2985468,36.0298533 C35.5035198,35.9747056 35.7124345,35.9287491 35.9213493,35.8814796 C34.8909002,37.0807787 33.9852744,38.3816744 33.2185967,39.7641428 C32.1439667,39.4398216 31.0969293,39.0301527 30.0875031,38.5390752 C30.3116923,38.373632 30.5394948,38.2139334 30.7707464,38.0598152 C30.85221,38.0072935 30.9297318,37.9495197 31.0111954,37.896998 C31.092659,37.8444764 31.1898898,37.7958939 31.2739813,37.7420592 C31.5893243,37.5516682 31.9059813,37.3652163 32.2344636,37.197147 C32.2791372,37.1748253 32.3251247,37.1564428 32.3658565,37.1341211 C32.4065884,37.1117993 32.4591455,37.0907907 32.506447,37.068469 C32.8336154,36.9122171 33.1581559,36.7651564 33.4879522,36.6312262 Z M38.101158,40.6767065 C37.3489335,40.6284522 36.5998295,40.5408067 35.8569667,40.4140982 C36.5094969,39.3310033 37.260736,38.3102778 38.101158,37.3652163 L38.101158,40.6767065 Z M40.7290166,37.3652163 C41.5686175,38.3109343 42.3196923,39.3314957 42.9732079,40.4140982 C42.2303451,40.5414632 41.4812412,40.6291087 40.7290166,40.6767065 L40.7290166,37.3652163 Z M34.6205593,42.856355 C35.767948,43.0928666 36.9312682,43.2430457 38.101158,43.3054152 L38.101158,49.911326 L32.9190208,49.911326 C33.0632245,47.4774398 33.6393825,45.0885253 34.6205593,42.856355 Z M38.101158,52.5374086 L38.101158,59.1472585 C36.9314324,59.2099562 35.7681123,59.3591505 34.6205593,59.5936925 C33.6398753,57.3608658 33.0637173,54.971623 32.9190208,52.5374086 L38.101158,52.5374086 Z M38.101158,65.0835182 C37.2615572,64.1378002 36.5104823,63.1172388 35.8569667,62.0346363 C36.5998295,61.9072713 37.3489335,61.8196258 38.101158,61.772028 L38.101158,65.0835182 Z M40.7290166,61.772028 C41.4812412,61.8202823 42.2303451,61.9079278 42.9732079,62.0346363 C42.3206778,63.1177312 41.5694387,64.1384567 40.7290166,65.0835182 L40.7290166,61.772028 Z M33.2185967,62.6832787 C33.9875738,64.0737894 34.8971414,65.3819068 35.9331746,66.5869505 C35.7741892,66.5501853 35.6138898,66.5121071 35.4562183,66.4714029 C35.331395,66.4385768 35.2065717,66.4083769 35.0843763,66.3729248 C34.9621809,66.3374726 34.867578,66.3125249 34.7598358,66.2796988 C34.5259563,66.2074816 34.2960187,66.1247599 34.0647672,66.0407253 C33.9451996,65.9973949 33.8243181,65.9566907 33.7060644,65.9094212 C33.6285426,65.8792212 33.5497069,65.8529604 33.473499,65.8214474 C33.2107131,65.7177171 32.9650083,65.5969173 32.7127339,65.4787436 C32.543237,65.3986481 32.3697983,65.3264308 32.2029293,65.2397701 C31.9309459,65.0992747 31.6681601,64.9417097 31.4040603,64.7854578 C31.2726674,64.7040493 31.1294491,64.631832 30.9954283,64.5464843 C30.9231622,64.5005279 30.8535239,64.4493192 30.7825717,64.4020498 C30.5565759,64.2536761 30.3358358,64.0961111 30.1177235,63.9359201 L30.0875031,63.9149114 C31.0967651,63.4218644 32.1438025,63.0098977 33.2185967,62.6832787 Z M44.2096154,59.5936925 C43.0620624,59.3591505 41.8987422,59.2099562 40.7290166,59.1472585 L40.7290166,52.5374086 L45.9111538,52.5374086 C45.7667859,54.971623 45.1906279,57.3608658 44.2096154,59.5936925 Z M40.7290166,49.911326 L40.7290166,43.3054152 C41.8989064,43.2430457 43.0622266,43.0928666 44.2096154,42.856355 C45.1909563,45.0885253 45.7671143,47.4774398 45.9111538,49.911326 L40.7290166,49.911326 Z M45.611578,39.7654558 C44.8422723,38.3772429 43.9325405,37.0714233 42.897,35.8683492 C43.0572994,35.9051144 43.2175988,35.9431926 43.3765842,35.9838969 C43.4987796,36.0167229 43.6236029,36.0469229 43.7457983,36.082375 C43.8679938,36.1178271 43.9625967,36.1427749 44.0703389,36.1756009 C44.3042183,36.2478182 44.5341559,36.3305398 44.7654075,36.4145744 C44.8849751,36.4579048 45.0058565,36.4986091 45.1241102,36.5458785 C45.201632,36.5760785 45.2804678,36.6023393 45.3566757,36.6338523 C45.6194615,36.7375826 45.8651663,36.8583824 46.1174407,36.9765561 C46.2869376,37.0566516 46.4603763,37.1288689 46.6272453,37.2155296 C46.9005426,37.356025 47.1646424,37.514903 47.4287422,37.672468 C47.5601351,37.7525635 47.7020395,37.8247808 47.8347464,37.9088154 C47.9070125,37.9547719 47.9766507,38.0059805 48.0476029,38.05325 C48.2749127,38.2029367 48.4956528,38.3605016 48.7163929,38.5220057 L48.7426715,38.5403883 C47.7332453,39.0311375 46.6862079,39.4408064 45.611578,39.7654558 Z M30.2543721,52.5374086 C30.3944699,55.20239 30.9941143,57.8232205 32.0268628,60.2843522 C30.6321268,60.7478558 29.2838711,61.3408581 27.9996694,62.055645 C25.5340811,59.459434 24.0237193,56.1034646 23.7162599,52.5374086 L30.2543721,52.5374086 Z M48.5758025,49.911326 C48.4357048,47.2463445 47.8360603,44.6255141 46.8033119,42.1643823 C48.1980478,41.7008787 49.5463035,41.1078764 50.8305052,40.3930896 C53.2960936,42.9893005 54.8064553,46.3452699 55.1139148,49.911326 L48.5758025,49.911326 Z" id="Shape" fill="#38BA72"></path>
                    </g>
                </g>
            </g>
        </g>
    </g>
</svg>