<?xml version="1.0" encoding="utf-8"?>
<!-- Generator: Adobe Illustrator 22.1.0, SVG Export Plug-In . SVG Version: 6.00 Build 0)  -->
<svg version="1.1" id="Layer_1" xmlns="http://www.w3.org/2000/svg" xmlns:xlink="http://www.w3.org/1999/xlink" x="0px" y="0px"
	 viewBox="0 0 80 80" style="enable-background:new 0 0 80 80;" xml:space="preserve">
<style type="text/css">
	.st0{fill:none;}
	.st1{fill:#38BA72;}
	.st2{fill:#546C8B;}
</style>
<rect class="st0" width="80" height="80"/>
<g id="innovation" transform="translate(680.000000, 93.000000)">
	<path id="Shape" class="st1" d="M-640-44c-4.4,0-8,3.6-8,8s3.6,8,8,8s8-3.6,8-8S-635.6-44-640-44z M-640-30.3
		c-3.2,0-5.7-2.6-5.7-5.7s2.6-5.7,5.7-5.7s5.7,2.6,5.7,5.7S-636.8-30.3-640-30.3z"/>
	<path class="st1" d="M-671-52h7v2h-7V-52z M-671-47h7v2h-7V-47z"/>
	<path class="st1" d="M-616-52h7v2h-7V-52z M-616-47h7v2h-7V-47z"/>
	<path id="Shape_1_" class="st2" d="M-611-68.1h-15.1c0.6-1.5,1-3,1.1-4.6h15.2c3.2,0,5.8-2.6,5.8-5.8s-2.6-5.8-5.8-5.8h-19.3
		c-0.1-0.1-0.3-0.3-0.4-0.4c-3-2.9-6.9-4.4-11.1-4.2c-4,0.2-7.6,1.9-10.2,4.6h-15l-8.4,3.1c-1.1,0.4-1.8,1.5-1.8,2.7
		s0.7,2.2,1.8,2.7l8.4,3.1h10.7c0.1,1.6,0.5,3.2,1.1,4.6h-15.1v11.6h-7v16.3h16.3v-16.3h-7v-9.3h13.9V-66c1.2,1.9,2.7,3.5,4.6,4.7
		v1.2h-2.3v2.3h2.3v2.3h-2.3v2.3h2.4c0.2,1.2,0.6,2.3,1.3,3.3l-3.2-2.2l-6.3,6.3l2.5,3.7c-0.1,0.3-0.3,0.6-0.4,1l-4.4,0.8v8.9
		l4.4,0.8c0.1,0.3,0.3,0.6,0.4,1l-2.5,3.7l6.3,6.3l3.7-2.5c0.3,0.1,0.6,0.3,1,0.4l0.8,4.4h8.9l0.8-4.4c0.3-0.1,0.6-0.3,1-0.4
		l3.7,2.5l6.3-6.3l-2.5-3.7c0.1-0.3,0.3-0.6,0.4-1l4.4-0.8v-8.9l-4.4-0.8c-0.1-0.3-0.3-0.6-0.4-1l2.5-3.7l-6.3-6.3l-3.2,2.2
		c0.7-1,1.1-2.1,1.3-3.3h2.4v-2.3h-2.3v-2.3h2.3v-2.3h-2.3v-1.2c1.9-1.2,3.5-2.9,4.6-4.7v0.2h13.9v9.3h-7v16.3h16.3v-16.3h-7v-11.6
		H-611z M-666.7-75.6l-6.6-2.5c-0.2-0.1-0.3-0.3-0.3-0.5s0.1-0.4,0.3-0.5l6.6-2.5V-75.6z M-662.1-54.2v11.7h-11.6v-11.6h11.6V-54.2z
		 M-620.3-75.1h-4.7c-0.1-0.8-0.2-1.6-0.4-2.3h5.1L-620.3-75.1L-620.3-75.1z M-613.3-82h3.5c1.9,0,3.5,1.6,3.5,3.5s-1.6,3.5-3.5,3.5
		h-3.5V-82z M-617.9-82h2.3v7h-2.3V-82z M-620.3-82v2.3h-5.8c-0.3-0.8-0.8-1.6-1.2-2.3H-620.3z M-655-75.1h-9.4v-2.3h9.7
		C-654.9-76.6-655-75.9-655-75.1z M-653.9-79.6L-653.9-79.6l-10.5-0.1V-82h11.7C-653.1-81.3-653.6-80.4-653.9-79.6z M-630.3-48.9
		l3.6,3.6l-2.2,3.3l0.3,0.6c0.3,0.6,0.6,1.3,0.8,1.9l0.2,0.7l3.9,0.7v5l-3.9,0.7l-0.2,0.7c-0.2,0.6-0.5,1.3-0.8,1.9l-0.3,0.6
		l2.2,3.3l-3.6,3.6l-3.3-2.2l-0.6,0.3c-0.6,0.3-1.3,0.6-1.9,0.8l-0.7,0.2l-0.7,3.9h-5l-0.7-3.9l-0.7-0.2c-0.6-0.2-1.3-0.5-1.9-0.8
		l-0.6-0.3l-3.3,2.2l-3.6-3.6l2.2-3.3l-0.3-0.6c-0.3-0.6-0.6-1.3-0.8-1.9l-0.2-0.7l-3.9-0.7v-5l3.9-0.7l0.2-0.7
		c0.2-0.6,0.5-1.3,0.8-1.9l0.3-0.6l-2.2-3.3l3.6-3.6l3.3,2.2l0.6-0.3c0.4-0.2,0.8-0.4,1.2-0.5c1.3,0.9,2.9,1.4,4.6,1.4
		s3.3-0.5,4.6-1.4c0.4,0.2,0.8,0.3,1.2,0.5l0.6,0.3L-630.3-48.9z M-634.2-57.6v2.3h-11.6v-2.3H-634.2z M-643.5-71.6h-2.3
		c-1.3,0-2.3-1-2.3-2.3s1-2.3,2.3-2.3s2.3,1,2.3,2.3V-71.6z M-641.2-60v-9.3h2.3v9.3C-638.9-60-641.2-60-641.2-60z M-634.3-53
		c-0.5,2.6-2.9,4.6-5.7,4.6s-5.1-2-5.7-4.6H-634.3z M-633.6-62.9l-0.6,0.3v2.5h-2.3v-9.3h2.3c2.6,0,4.6-2.1,4.6-4.6
		c0-2.6-2.1-4.6-4.6-4.6s-4.6,2.1-4.6,4.6v2.3h-2.3V-74c0-2.6-2.1-4.6-4.6-4.6s-4.6,2.1-4.6,4.6c0,2.6,2.1,4.6,4.6,4.6h2.3v9.3h-2.3
		v-2.4l-0.6-0.3c-4-2.3-6.5-6.7-6.4-11.4c0.2-6.6,5.7-12.2,12.3-12.5c0.2,0,0.3,0,0.5,0c3.3,0,6.5,1.3,8.9,3.6
		c2.5,2.4,3.9,5.7,3.9,9.2C-627.2-69.4-629.7-65.1-633.6-62.9z M-636.5-71.6v-2.3c0-1.3,1-2.3,2.3-2.3s2.3,1,2.3,2.3s-1,2.3-2.3,2.3
		H-636.5z M-606.3-54.2v11.7h-11.6v-11.6h11.6V-54.2z"/>
</g>
</svg>
