<?xml version="1.0" encoding="UTF-8"?>
<svg width="70px" height="75px" viewBox="0 0 70 75" version="1.1" xmlns="http://www.w3.org/2000/svg" xmlns:xlink="http://www.w3.org/1999/xlink">
    <!-- Generator: sketchtool 51 (57462) - http://www.bohemiancoding.com/sketch -->
    <title>E1FFE52F-C432-4F9E-AE91-068088AB9F8B</title>
    <desc>Created with sketchtool.</desc>
    <defs></defs>
    <g id="Page-1" stroke="none" stroke-width="1" fill="none" fill-rule="evenodd">
        <g id="Djem_solution_02" transform="translate(-1354.000000, -874.000000)">
            <rect fill="#FFFFFF" x="0" y="0" width="1900" height="5046"></rect>
            <g id="About" transform="translate(382.000000, 784.000000)" fill-rule="nonzero">
                <g id="presentation" transform="translate(972.000000, 90.000000)">
                    <path d="M11,6 C7.68635,6 5,8.68635 5,12 C5.0039,15.312 7.688,17.9961 11,18 C14.31365,18 17,15.31365 17,12 C17,8.68635 14.31365,6 11,6 Z M56,27 L59,27 L59,32 L56,32 L53,32 L53,25 L56,25 L56,27 Z M11,15.6 C9.01175,15.6 7.4,13.98825 7.4,12 C7.4,10.01175 9.01175,8.4 11,8.4 C12.98825,8.4 14.6,10.01175 14.6,12 C14.6,13.98825 12.98825,15.6 11,15.6 Z M58,49 C60.7614063,49 63,51.2385937 63,54 C63,56.7614063 60.7614063,59 58,59 C55.2385937,59 53,56.7614063 53,54 C53,51.2385937 55.2385937,49 58,49 Z M58,56.5 C59.3807812,56.5 60.5,55.3807812 60.5,54 C60.5,52.6192188 59.3807812,51.5 58,51.5 C56.6192188,51.5 55.5,52.6192188 55.5,54 C55.5,55.3807812 56.6192188,56.5 58,56.5 Z M58.75,60 C62.2,60.0040625 64.9959375,62.8 65,66.25 L65,75 L50,75 L50,66.25 C50.0040625,62.8 52.8,60.0040625 56.25,60 L58.75,60 Z M62.5,72.5 L62.5,66.25 C62.5,64.1789062 60.8210938,62.5 58.75,62.5 L56.25,62.5 C54.1789062,62.5 52.5,64.1789062 52.5,66.25 L52.5,72.5 L62.5,72.5 Z M41,49 C43.7614063,49 46,51.2385937 46,54 C46,56.7614063 43.7614063,59 41,59 C38.2385937,59 36,56.7614063 36,54 C36,51.2385937 38.2385937,49 41,49 Z M41,56.5 C42.3807813,56.5 43.5,55.3807812 43.5,54 C43.5,52.6192188 42.3807813,51.5 41,51.5 C39.6192188,51.5 38.5,52.6192188 38.5,54 C38.5,55.3807812 39.6192188,56.5 41,56.5 Z M42.75,60 C46.2,60.0040625 48.9959375,62.8 49,66.25 L49,75 L34,75 L34,66.25 C34.0040625,62.8 36.8,60.0040625 40.25,60 L42.75,60 Z M46.5,72.5 L46.5,66.25 C46.5,64.1789062 44.8210937,62.5 42.75,62.5 L40.25,62.5 C38.1789062,62.5 36.5,64.1789062 36.5,66.25 L36.5,72.5 L46.5,72.5 Z M24,49 C26.7614063,49 29,51.2385937 29,54 C29,56.7614063 26.7614063,59 24,59 C21.2385938,59 19,56.7614063 19,54 C19,51.2385937 21.2385938,49 24,49 Z M24,56.5 C25.3807813,56.5 26.5,55.3807812 26.5,54 C26.5,52.6192188 25.3807813,51.5 24,51.5 C22.6192188,51.5 21.5,52.6192188 21.5,54 C21.5,55.3807812 22.6192188,56.5 24,56.5 Z M24.75,60 C28.2,60.0040625 30.9959375,62.8 31,66.25 L31,75 L16,75 L16,66.25 C16.0040625,62.8 18.8,60.0040625 22.25,60 L24.75,60 Z M28.5,72.5 L28.5,66.25 C28.5,64.1789062 26.8210937,62.5 24.75,62.5 L22.25,62.5 C20.1789063,62.5 18.5,64.1789062 18.5,66.25 L18.5,72.5 L28.5,72.5 Z M8,49 C10.7614062,49 13,51.2385937 13,54 C13,56.7614063 10.7614062,59 8,59 C5.23859375,59 3,56.7614063 3,54 C3,51.2385937 5.23859375,49 8,49 Z M8,56.5 C9.38078125,56.5 10.5,55.3807812 10.5,54 C10.5,52.6192188 9.38078125,51.5 8,51.5 C6.61921875,51.5 5.5,52.6192188 5.5,54 C5.5,55.3807812 6.61921875,56.5 8,56.5 Z M8.75,60 C12.2,60.0040625 14.9959375,62.8 15,66.25 L15,75 L0,75 L0,66.25 C0.0040625,62.8 2.8,60.0040625 6.25,60 L8.75,60 Z M12.5,72.5 L12.5,66.25 C12.5,64.1789062 10.8210938,62.5 8.75,62.5 L6.25,62.5 C4.17890625,62.5 2.5,64.1789062 2.5,66.25 L2.5,72.5 L12.5,72.5 Z M7.25,20 L36,20 L36,27.5 L21,27.5 L21,40 L1,40 L1,26.25 C1.0040625,22.8 3.8,20.0040625 7.25,20 Z M33.5,25 L33.5,22.5 L7.25,22.5 C5.17890625,22.5 3.5,24.1789063 3.5,26.25 L3.5,37.5 L18.5,37.5 L18.5,25 L33.5,25 Z M25,0 L70,0 L70,37 L25,37 L25,29.6 L27.5,29.6 L27.5,34.5333333 L67.5,34.5333333 L67.5,2.46666667 L27.5,2.46666667 L27.5,17.2666667 L25,17.2666667 L25,0 Z M33,5 L35,5 L35,7 L33,7 L33,5 Z M37,5 L47,5 L47,7 L37,7 L37,5 Z M33,10 L48,10 L48,12 L33,12 L33,10 Z M45,30 L47,30 L47,32 L45,32 L45,30 Z M49,27 L52,27 L52,32 L49,32 L49,27 Z M60,22 L62,22 L62,32 L60,32 L60,22 Z" id="Combined-Shape" fill="#546C8B"></path>
                    <path d="M57.5,5 C53.3578125,5 50,8.3578125 50,12.5 C50,16.6421875 53.3578125,20 57.5,20 C61.6404688,19.9959375 64.9959375,16.6404688 65,12.5 C65,8.3578125 61.6421875,5 57.5,5 Z M57.5,17.5 C54.7440625,17.5034375 52.5071875,15.2721875 52.50375,12.51625 C52.5009375,10.2370312 54.0426563,8.245625 56.25,7.6775 L56.25,13.75 L62.3225,13.75 C61.7542187,15.9509375 59.7729688,17.4914063 57.5,17.5 Z M58.75,11.25 L58.75,7.6775 C60.5003125,8.13265625 61.8673438,9.4996875 62.3225,11.25 L58.75,11.25 Z" id="Shape" fill="#38BA72"></path>
                </g>
            </g>
        </g>
    </g>
</svg>